<?xml version="1.0" standalone="no"?>
<!DOCTYPE svg PUBLIC "-//W3C//DTD SVG 1.1//EN" "http://www.w3.org/Graphics/SVG/1.1/DTD/svg11.dtd" >
<svg xmlns="http://www.w3.org/2000/svg">
<metadata></metadata>
<defs>
<font id="mantekaregular" horiz-adv-x="1280" >
<font-face units-per-em="2048" ascent="1638" descent="-410" />
<missing-glyph horiz-adv-x="638" />
<glyph horiz-adv-x="2048" />
<glyph horiz-adv-x="2048" />
<glyph unicode="&#xd;" horiz-adv-x="2048" />
<glyph unicode=" "  horiz-adv-x="638" />
<glyph unicode="&#x09;" horiz-adv-x="638" />
<glyph unicode="&#xa0;" horiz-adv-x="638" />
<glyph unicode="!" horiz-adv-x="512" d="M127 0v256h258v-256h-258zM127 512v1280h258v-1280h-258z" />
<glyph unicode="&#x22;" horiz-adv-x="894" d="M127 1280v512h258v-512h-258zM512 1280v512h256v-512h-256z" />
<glyph unicode="$" d="M127 256v256h258v-256h512v512h-512q-107 0 -182.5 74.5t-75.5 181.5v512q0 106 76 181t182 75h127v256h256v-256h129q104 0 179 -76t75 -180v-256h-254v256h-512v-512h512q104 0 179 -76t75 -180v-512q0 -106 -74 -181t-180 -75h-129v-256h-256v256h-127 q-107 0 -182.5 74.5t-75.5 181.5z" />
<glyph unicode="%" horiz-adv-x="1406" d="M127 0l770 1536h254l-766 -1536h-258zM127 1024v385h385v-385h-385zM768 127v385h383v-385h-383z" />
<glyph unicode="'" horiz-adv-x="512" d="M127 1280v512h258v-512h-258z" />
<glyph unicode="(" horiz-adv-x="768" d="M127 0v1536q0 106 76 181t182 75h254v-256h-254v-1536h254v-256h-254q-106 0 -182 75t-76 181z" />
<glyph unicode=")" horiz-adv-x="768" d="M127 0h258v1536h-258v256h258q104 0 179 -76t75 -180v-1536q0 -104 -75 -180t-179 -76h-258v256z" />
<glyph unicode="*" horiz-adv-x="894" d="M127 1280v129l258 127l-258 127v129l258 -129v258h127v-258l256 129v-129l-256 -127l256 -127v-129l-256 129v-258h-127v258z" />
<glyph unicode="+" d="M127 512v256h385v383h256v-383h383v-256h-383v-385h-256v385h-385z" />
<glyph unicode="," horiz-adv-x="512" d="M127 0v256h258v-256l-129 -256h-129l129 256h-129z" />
<glyph unicode="-" horiz-adv-x="1024" d="M127 512v256h770v-256h-770z" />
<glyph unicode="." horiz-adv-x="512" d="M127 0v256h258v-256h-258z" />
<glyph unicode="/" horiz-adv-x="1406" d="M0 -256l1024 2048h256l-1024 -2048h-256z" />
<glyph unicode="0" horiz-adv-x="1150" d="M127 256v1280q0 106 76 181t182 75h383q104 0 180 -76t76 -180v-1280q0 -106 -75 -181t-181 -75h-383q-107 0 -182.5 74.5t-75.5 181.5zM385 256h383v1280h-383v-1280z" />
<glyph unicode="1" horiz-adv-x="1024" d="M127 0v256h258v1280l-258 -256v256l258 256h254v-1536h258v-256h-770z" />
<glyph unicode="2" d="M127 0v385l770 766v385h-512v-256h-258v256q0 106 76 181t182 75h512q104 0 179 -76t75 -180v-512l-766 -768h766v-256h-1024z" />
<glyph unicode="3" d="M127 256v256h258v-256h512v512h-385v256h385v512h-512v-256h-258v256q0 106 76 181t182 75h512q104 0 179 -76t75 -180v-512q0 -54 -36.5 -90.5t-90.5 -36.5q52 0 89.5 -38t37.5 -91v-512q0 -106 -74 -181t-180 -75h-512q-107 0 -182.5 74.5t-75.5 181.5z" />
<glyph unicode="4" d="M127 256v256l641 1280h256v-1280h127v-256h-127v-256h-256v256h-641zM385 512h383v768z" />
<glyph unicode="5" d="M127 256v256h258v-256h512v512h-641l-129 129v895h1024v-383h-254v127h-512v-512h512q104 0 179 -76t75 -180v-512q0 -106 -74 -181t-180 -75h-512q-107 0 -182.5 74.5t-75.5 181.5z" />
<glyph unicode="6" d="M127 256v1280q0 106 76 181t182 75h512q104 0 179 -76t75 -180v-127h-254v127h-512v-512h512q104 0 179 -76t75 -180v-512q0 -106 -74 -181t-180 -75h-512q-107 0 -182.5 74.5t-75.5 181.5zM385 256h512v512h-512v-512z" />
<glyph unicode="7" d="M127 1409v383h1024v-512l-639 -1280h-256l641 1280v256h-512v-127h-258z" />
<glyph unicode="8" d="M127 256v512q0 56 22.5 109t63.5 81q-86 86 -86 193v385q0 106 76 181t182 75h512q104 0 179 -76t75 -180v-385q0 -58 -22 -110t-64 -80q86 -86 86 -193v-512q0 -106 -74 -181t-180 -75h-512q-107 0 -182.5 74.5t-75.5 181.5zM385 256h512v512h-512v-512zM385 1024h512 v512h-512v-512z" />
<glyph unicode="9" d="M127 256v129h258v-129h512v512h-512q-107 0 -182.5 74.5t-75.5 181.5v512q0 106 76 181t182 75h512q104 0 179 -76t75 -180v-1280q0 -106 -74 -181t-180 -75h-512q-107 0 -182.5 74.5t-75.5 181.5zM385 1024h512v512h-512v-512z" />
<glyph unicode=":" horiz-adv-x="512" d="M127 0v256h258v-256h-258zM127 768v256h258v-256h-258z" />
<glyph unicode=";" horiz-adv-x="512" d="M127 0v256h258v-256l-129 -256h-129l129 256h-129zM127 768v256h258v-256h-258z" />
<glyph unicode="&#x3c;" d="M127 512v256l1024 512v-256l-766 -385l766 -383v-256z" />
<glyph unicode="=" d="M127 256v256h1024v-256h-1024zM127 768v256h1024v-256h-1024z" />
<glyph unicode="&#x3e;" d="M127 0v256l770 383l-770 385v256l1024 -512v-256z" />
<glyph unicode="?" d="M127 1280v256q0 106 76 181t182 75h512q104 0 179 -76t75 -180v-512q0 -106 -74 -181t-180 -75h-129v-256h-256v385q0 54 36.5 90.5t90.5 36.5h258v512h-512v-256h-258zM512 0v256h256v-256h-256z" />
<glyph unicode="A" d="M127 0v1536q0 106 76 181t182 75h512q104 0 179 -76t75 -180v-1536h-254v768h-512v-768h-258zM385 1024h512v512h-512v-512z" />
<glyph unicode="B" d="M127 0v1792h770q104 0 179 -76t75 -180v-385q0 -58 -22 -110t-64 -80q86 -86 86 -193v-512q0 -106 -74 -181t-180 -75h-770zM385 256h512v512h-512v-512zM385 1024h512v512h-512v-512z" />
<glyph unicode="C" d="M127 256v1280q0 106 76 181t182 75h766v-256h-766v-1280h766v-256h-766q-107 0 -182.5 74.5t-75.5 181.5z" />
<glyph unicode="D" d="M127 0v1792h770q104 0 179 -76t75 -180v-1280q0 -106 -74 -181t-180 -75h-770zM385 256h512v1280h-512v-1280z" />
<glyph unicode="E" d="M127 0v1792h1024v-256h-766v-512h512v-256h-512v-512h766v-256h-1024z" />
<glyph unicode="F" d="M127 0v1792h1024v-256h-766v-512h512v-256h-512v-768h-258z" />
<glyph unicode="G" d="M127 256v1280q0 106 76 181t182 75h512q104 0 179 -76t75 -180v-256h-254v256h-512v-1280h512v512h-258v256h385q52 0 89.5 -37t37.5 -90v-641q0 -106 -74 -181t-180 -75h-512q-107 0 -182.5 74.5t-75.5 181.5z" />
<glyph unicode="H" d="M127 0v1792h258v-768h512v768h254v-1792h-254v768h-512v-768h-258z" />
<glyph unicode="I" horiz-adv-x="1024" d="M127 0v256h258v1280h-258v256h770v-256h-258v-1280h258v-256h-770z" />
<glyph unicode="J" d="M127 256v383h258v-383h512v1536h254v-1536q0 -106 -74 -181t-180 -75h-512q-107 0 -182.5 74.5t-75.5 181.5z" />
<glyph unicode="K" d="M127 0v1792h258v-768h127l385 768h254l-446 -895l446 -897h-254l-385 768h-127v-768h-258z" />
<glyph unicode="L" d="M127 0v1792h258v-1536h766v-256h-1024z" />
<glyph unicode="M" horiz-adv-x="1536" d="M127 0v1792h258l383 -768l383 768h258v-1792h-258v1280l-254 -512h-258l-254 512v-1280h-258z" />
<glyph unicode="N" horiz-adv-x="1406" d="M127 0v1792h258l639 -1280v1280h256v-1792h-256l-639 1280v-1280h-258z" />
<glyph unicode="O" d="M127 256v1280q0 106 76 181t182 75h512q104 0 179 -76t75 -180v-1280q0 -106 -74 -181t-180 -75h-512q-107 0 -182.5 74.5t-75.5 181.5zM385 256h512v1280h-512v-1280z" />
<glyph unicode="P" d="M127 0v1792h770q104 0 179 -76t75 -180v-512q0 -106 -74 -181t-180 -75h-512v-768h-258zM385 1024h512v512h-512v-512z" />
<glyph unicode="Q" d="M127 256v1280q0 106 76 181t182 75h512q104 0 179 -76t75 -180v-1280q0 -90 -56.5 -160.5t-138.5 -89.5l68 -133h-256l-63 127h-320q-107 0 -182.5 74.5t-75.5 181.5zM385 256h190l-63 129h256l63 -129h66v1280h-512v-1280z" />
<glyph unicode="R" d="M127 0v1792h770q104 0 179 -76t75 -180v-512q0 -106 -74 -181t-180 -75h-129l383 -768h-254l-385 768h-127v-768h-258zM385 1024h512v512h-512v-512z" />
<glyph unicode="S" d="M127 256v256h258v-256h512v512h-512q-107 0 -182.5 74.5t-75.5 181.5v512q0 106 76 181t182 75h512q104 0 179 -76t75 -180v-256h-254v256h-512v-512h512q104 0 179 -76t75 -180v-512q0 -106 -74 -181t-180 -75h-512q-107 0 -182.5 74.5t-75.5 181.5z" />
<glyph unicode="T" horiz-adv-x="1150" d="M0 1536v256h1024v-256h-385v-1536h-254v1536h-385z" />
<glyph unicode="U" d="M127 256v1536h258v-1536h512v1536h254v-1536q0 -106 -74 -181t-180 -75h-512q-107 0 -182.5 74.5t-75.5 181.5z" />
<glyph unicode="V" d="M127 768v1024h258v-1024l254 -512l258 512v1024h254v-1024l-383 -768h-256z" />
<glyph unicode="W" horiz-adv-x="1536" d="M127 0v1792h258v-1280l254 512h258l254 -512v1280h258v-1792h-258l-383 768l-383 -768h-258z" />
<glyph unicode="X" d="M127 0v256l322 641l-322 639v256h258v-256l254 -512l258 512v256h254v-256l-320 -639l320 -641v-256h-254v256l-258 512l-254 -512v-256h-258z" />
<glyph unicode="Y" d="M127 1536v256h258v-256l254 -512l258 512v256h254v-256l-383 -768v-768h-256v768z" />
<glyph unicode="Z" d="M127 0v256l641 1280h-641v256h1024l-766 -1536h766v-256h-1024z" />
<glyph unicode="[" horiz-adv-x="768" d="M127 -256v2048h512v-256h-254v-1536h254v-256h-512z" />
<glyph unicode="\" horiz-adv-x="1406" d="M0 1792h256l1024 -2048h-256z" />
<glyph unicode="]" horiz-adv-x="768" d="M127 0h258v1536h-258v256h512v-2048h-512v256z" />
<glyph unicode="^" horiz-adv-x="768" d="M127 1409v127l258 127l254 -127v-127l-254 127z" />
<glyph unicode="_" d="M127 -127v254h1024v-254h-1024z" />
<glyph unicode="`" horiz-adv-x="512" d="M127 1536v127l258 -127v-127z" />
<glyph unicode="a" d="M127 0v1536q0 106 76 181t182 75h512q104 0 179 -76t75 -180v-1536h-254v768h-512v-768h-258zM385 1024h512v512h-512v-512z" />
<glyph unicode="b" d="M127 0v1792h770q104 0 179 -76t75 -180v-385q0 -58 -22 -110t-64 -80q86 -86 86 -193v-512q0 -106 -74 -181t-180 -75h-770zM385 256h512v512h-512v-512zM385 1024h512v512h-512v-512z" />
<glyph unicode="c" d="M127 256v1280q0 106 76 181t182 75h766v-256h-766v-1280h766v-256h-766q-107 0 -182.5 74.5t-75.5 181.5z" />
<glyph unicode="d" d="M127 0v1792h770q104 0 179 -76t75 -180v-1280q0 -106 -74 -181t-180 -75h-770zM385 256h512v1280h-512v-1280z" />
<glyph unicode="e" d="M127 0v1792h1024v-256h-766v-512h512v-256h-512v-512h766v-256h-1024z" />
<glyph unicode="f" d="M127 0v1792h1024v-256h-766v-512h512v-256h-512v-768h-258z" />
<glyph unicode="g" d="M127 256v1280q0 106 76 181t182 75h512q104 0 179 -76t75 -180v-256h-254v256h-512v-1280h512v512h-258v256h385q52 0 89.5 -37t37.5 -90v-641q0 -106 -74 -181t-180 -75h-512q-107 0 -182.5 74.5t-75.5 181.5z" />
<glyph unicode="h" d="M127 0v1792h258v-768h512v768h254v-1792h-254v768h-512v-768h-258z" />
<glyph unicode="i" horiz-adv-x="1024" d="M127 0v256h258v1280h-258v256h770v-256h-258v-1280h258v-256h-770z" />
<glyph unicode="j" d="M127 256v383h258v-383h512v1536h254v-1536q0 -106 -74 -181t-180 -75h-512q-107 0 -182.5 74.5t-75.5 181.5z" />
<glyph unicode="k" d="M127 0v1792h258v-768h127l385 768h254l-446 -895l446 -897h-254l-385 768h-127v-768h-258z" />
<glyph unicode="l" d="M127 0v1792h258v-1536h766v-256h-1024z" />
<glyph unicode="m" horiz-adv-x="1536" d="M127 0v1792h258l383 -768l383 768h258v-1792h-258v1280l-254 -512h-258l-254 512v-1280h-258z" />
<glyph unicode="n" horiz-adv-x="1406" d="M127 0v1792h258l639 -1280v1280h256v-1792h-256l-639 1280v-1280h-258z" />
<glyph unicode="o" d="M127 256v1280q0 106 76 181t182 75h512q104 0 179 -76t75 -180v-1280q0 -106 -74 -181t-180 -75h-512q-107 0 -182.5 74.5t-75.5 181.5zM385 256h512v1280h-512v-1280z" />
<glyph unicode="p" d="M127 0v1792h770q104 0 179 -76t75 -180v-512q0 -106 -74 -181t-180 -75h-512v-768h-258zM385 1024h512v512h-512v-512z" />
<glyph unicode="q" d="M127 256v1280q0 106 76 181t182 75h512q104 0 179 -76t75 -180v-1280q0 -90 -56.5 -160.5t-138.5 -89.5l68 -133h-256l-63 127h-320q-107 0 -182.5 74.5t-75.5 181.5zM385 256h190l-63 129h256l63 -129h66v1280h-512v-1280z" />
<glyph unicode="r" d="M127 0v1792h770q104 0 179 -76t75 -180v-512q0 -106 -74 -181t-180 -75h-129l383 -768h-254l-385 768h-127v-768h-258zM385 1024h512v512h-512v-512z" />
<glyph unicode="s" d="M127 256v256h258v-256h512v512h-512q-107 0 -182.5 74.5t-75.5 181.5v512q0 106 76 181t182 75h512q104 0 179 -76t75 -180v-256h-254v256h-512v-512h512q104 0 179 -76t75 -180v-512q0 -106 -74 -181t-180 -75h-512q-107 0 -182.5 74.5t-75.5 181.5z" />
<glyph unicode="t" d="M127 1536v256h1024v-256h-383v-1536h-256v1536h-385z" />
<glyph unicode="u" d="M127 256v1536h258v-1536h512v1536h254v-1536q0 -106 -74 -181t-180 -75h-512q-107 0 -182.5 74.5t-75.5 181.5z" />
<glyph unicode="v" d="M127 768v1024h258v-1024l254 -512l258 512v1024h254v-1024l-383 -768h-256z" />
<glyph unicode="w" horiz-adv-x="1536" d="M127 0v1792h258v-1280l254 512h258l254 -512v1280h258v-1792h-258l-383 768l-383 -768h-258z" />
<glyph unicode="x" d="M127 0v256l322 641l-322 639v256h258v-256l254 -512l258 512v256h254v-256l-320 -639l320 -641v-256h-254v256l-258 512l-254 -512v-256h-258z" />
<glyph unicode="y" d="M127 1536v256h258v-256l254 -512l258 512v256h254v-256l-383 -768v-768h-256v768z" />
<glyph unicode="z" d="M127 0v256l641 1280h-641v256h1024l-766 -1536h766v-256h-1024z" />
<glyph unicode="{" horiz-adv-x="894" d="M0 768q104 0 180 76t76 180v512q0 106 75 181t181 75h256v-256h-256v-512q0 -106 -75 -181t-181 -75q104 0 180 -76t76 -180v-512h256v-256h-256q-106 0 -181 75t-75 181v512q0 103 -76.5 179.5t-179.5 76.5z" />
<glyph unicode="|" horiz-adv-x="512" d="M127 -256v2048h258v-2048h-258z" />
<glyph unicode="}" horiz-adv-x="1024" d="M127 0h258v512q0 106 74 181t180 75q-107 0 -180.5 74.5t-73.5 181.5v512h-258v256h258q104 0 179 -76t75 -180v-512q0 -106 76 -181t182 -75q-104 0 -181 -76t-77 -180v-512q0 -104 -75 -180t-179 -76h-258v256z" />
<glyph unicode="~" horiz-adv-x="1024" d="M127 512v256l258 129l254 -129l258 129v-258l-258 -127l-254 127z" />
<glyph unicode="&#xad;" horiz-adv-x="1024" d="M127 512v256h770v-256h-770z" />
<glyph unicode="&#xbf;" d="M127 256v512q0 106 76 181t182 75h127v256h256v-383q0 -54 -37.5 -91.5t-91.5 -37.5h-254v-512h512v256h254v-256q0 -106 -74 -181t-180 -75h-512q-107 0 -182.5 74.5t-75.5 181.5zM512 1536v256h256v-256h-256z" />
<glyph unicode="&#xd1;" horiz-adv-x="1406" d="M127 0v1792h258l639 -1280v1280h256v-1792h-256l-639 1280v-1280h-258zM256 1921v254l256 129l256 -129l256 129v-256l-256 -127l-256 127z" />
<glyph unicode="&#xf1;" horiz-adv-x="1406" d="M127 0v1792h258l639 -1280v1280h256v-1792h-256l-639 1280v-1280h-258zM256 1921v254l256 129l256 -129l256 129v-256l-256 -127l-256 127z" />
<glyph unicode="&#x2000;" horiz-adv-x="1152" />
<glyph unicode="&#x2001;" horiz-adv-x="2304" />
<glyph unicode="&#x2002;" horiz-adv-x="1152" />
<glyph unicode="&#x2003;" horiz-adv-x="2304" />
<glyph unicode="&#x2004;" horiz-adv-x="768" />
<glyph unicode="&#x2005;" horiz-adv-x="576" />
<glyph unicode="&#x2006;" horiz-adv-x="384" />
<glyph unicode="&#x2007;" horiz-adv-x="384" />
<glyph unicode="&#x2008;" horiz-adv-x="288" />
<glyph unicode="&#x2009;" horiz-adv-x="460" />
<glyph unicode="&#x200a;" horiz-adv-x="128" />
<glyph unicode="&#x2010;" horiz-adv-x="1024" d="M127 512v256h770v-256h-770z" />
<glyph unicode="&#x2011;" horiz-adv-x="1024" d="M127 512v256h770v-256h-770z" />
<glyph unicode="&#x2012;" horiz-adv-x="1024" d="M127 512v256h770v-256h-770z" />
<glyph unicode="&#x2013;" horiz-adv-x="1278" d="M127 512v256h1024v-256h-1024z" />
<glyph unicode="&#x2014;" horiz-adv-x="2302" d="M127 512v256h2048v-256h-2048z" />
<glyph unicode="&#x2018;" horiz-adv-x="512" d="M127 1536v256l129 256h129l-129 -256h129v-256h-258z" />
<glyph unicode="&#x2019;" horiz-adv-x="512" d="M127 1280l129 256h-129v256h258v-256l-129 -256h-129z" />
<glyph unicode="&#x201c;" horiz-adv-x="894" d="M127 1536v256l129 256h129l-129 -256h129v-256h-258zM512 1536v256l127 256h129l-129 -256h129v-256h-256z" />
<glyph unicode="&#x201d;" horiz-adv-x="894" d="M127 1280l129 256h-129v256h258v-256l-129 -256h-129zM512 1280l127 256h-127v256h256v-256l-129 -256h-127z" />
<glyph unicode="&#x202f;" horiz-adv-x="460" />
<glyph unicode="&#x205f;" horiz-adv-x="576" />
<glyph unicode="&#x25fc;" horiz-adv-x="1792" d="M0 0v1792h1792v-1792h-1792z" />
</font>
</defs>
</svg>
