<svg width="951" height="219" viewBox="0 0 951 219" xmlns="http://www.w3.org/2000/svg" xmlns:xlink="http://www.w3.org/1999/xlink">
    <title>
        Group 16
    </title>
    <defs>
        <filter x="-50%" y="-50%" width="200%" height="200%" filterUnits="objectBoundingBox" id="a">
            <feGaussianBlur stdDeviation="2" in="SourceGraphic"/>
        </filter>
        <filter x="-50%" y="-50%" width="200%" height="200%" filterUnits="objectBoundingBox" id="b">
            <feGaussianBlur stdDeviation="2" in="SourceGraphic"/>
        </filter>
        <filter x="-50%" y="-50%" width="200%" height="200%" filterUnits="objectBoundingBox" id="c">
            <feGaussianBlur stdDeviation="2" in="SourceGraphic"/>
        </filter>
        <filter x="-50%" y="-50%" width="200%" height="200%" filterUnits="objectBoundingBox" id="d">
            <feGaussianBlur stdDeviation="2" in="SourceGraphic"/>
        </filter>
        <filter x="-50%" y="-50%" width="200%" height="200%" filterUnits="objectBoundingBox" id="e">
            <feGaussianBlur stdDeviation="2" in="SourceGraphic"/>
        </filter>
        <filter x="-50%" y="-50%" width="200%" height="200%" filterUnits="objectBoundingBox" id="f">
            <feGaussianBlur stdDeviation="2" in="SourceGraphic"/>
        </filter>
        <path id="g" d="M0 101.505h160.616V0H0z"/>
    </defs>
    <g transform="translate(1 1)" fill="none" fill-rule="evenodd">
        <path d="M146.02 158.954c0 2.596-2.063 4.7-4.607 4.7H5.067c-2.544 0-4.606-2.104-4.606-4.7V77.17c0-2.595 2.062-4.7 4.606-4.7h136.346c2.544 0 4.607 2.105 4.607 4.7v81.784z" fill="#FFF"/>
        <path d="M146.02 158.954c0 2.596-2.063 4.7-4.607 4.7H5.067c-2.544 0-4.606-2.104-4.606-4.7V77.17c0-2.595 2.062-4.7 4.606-4.7h136.346c2.544 0 4.607 2.105 4.607 4.7v81.784z" stroke="#FFA300"/>
        <path d="M148.323 162.244c0 2.596-2.063 4.7-4.607 4.7H7.37c-2.544 0-4.606-2.104-4.606-4.7V80.46c0-2.595 2.062-4.7 4.606-4.7h136.346c2.544 0 4.607 2.105 4.607 4.7v81.784z" fill-opacity=".2" fill="#FFA300"/>
        <path d="M45.602 72.47H5.067c-2.544 0-4.606 2.105-4.606 4.7v81.784c0 2.596 2.062 4.7 4.606 4.7h40.535V72.47z" stroke="#FFA300"/>
        <path d="M45.142 164.124V75.76H7.83c-2.544 0-5.067 1.635-5.067 4.23v81.784c0 .456.082 1.146.224 1.587.627.327 1.326.763 2.079.763h40.075zM45.142 164.124h2.763V72.94h-2.763z" fill-opacity=".2" fill="#FFA300"/>
        <path d="M157.996 171.616c0 2.468-1.293 4.259-3.569 4.259H32.397c-2.276 0-4.299-1.791-4.299-4.259V93.86c0-2.467 2.023-4.469 4.299-4.469h122.03c2.276 0 3.569 2.002 3.569 4.47v77.756z" fill="#FFF"/>
        <path d="M157.996 171.616c0 2.468-1.293 4.259-3.569 4.259H32.397c-2.276 0-4.299-1.791-4.299-4.259V93.86c0-2.467 2.023-4.469 4.299-4.469h122.03c2.276 0 3.569 2.002 3.569 4.47v77.756z" stroke="#FFA300"/>
        <path d="M166.287 176.815c0 1.039-.824 1.88-1.842 1.88H20.728c-1.018 0-1.842-.841-1.842-1.88v-1.88c0-1.039.824-1.88 1.842-1.88h143.717c1.018 0 1.842.841 1.842 1.88v1.88z" fill="#FFF"/>
        <path d="M166.287 176.815c0 1.039-.824 1.88-1.842 1.88H20.728c-1.018 0-1.842-.841-1.842-1.88v-1.88c0-1.039.824-1.88 1.842-1.88h143.717c1.018 0 1.842.841 1.842 1.88v1.88z" stroke="#FFA300"/>
        <path stroke-opacity=".8" stroke="#FFA300" d="M32.705 168.355H153.39V95.97H32.705z"/>
        <path fill-opacity=".05" fill="#FFA300" d="M153.39 168.825H32.244V96.44h27.979l65.368 71.914z"/>
        <path d="M101.8 121.822c0 5.452-4.332 9.87-9.674 9.87s-9.673-4.418-9.673-9.87c0-5.45 4.33-9.87 9.673-9.87 5.342 0 9.673 4.42 9.673 9.87zM107.327 148.614c0 .519.014.94-.537.94H78.844c-.55 0-.998-.421-.998-.94v-4.7c0-.52.447-.94.998-.94h27.946c.55 0 .537.42.537.94v4.7z" stroke-opacity=".3" stroke="#FFA300"/>
        <path fill-opacity=".2" fill="#FFA300" d="M82.913 137.803h18.426v-1.88H82.913zM19.346 175.405v.47c0 1.039-.843 2.35.175 2.35h145.845c1.018 0 1.382-1.311 1.382-2.35v-.47H19.346z"/>
        <path fill="#FFF" d="M22.57 173.055h13.82v-1.88H22.57z"/>
        <path stroke-opacity=".6" stroke="#FFA300" d="M22.57 173.055h13.82v-1.88H22.57z"/>
        <path fill="#FFF" d="M38.232 173.055h13.82v-1.88h-13.82z"/>
        <path stroke-opacity=".6" stroke="#FFA300" d="M38.232 173.055h13.82v-1.88h-13.82z"/>
        <path fill="#FFF" d="M53.894 173.055h13.819v-1.88h-13.82z"/>
        <path stroke-opacity=".6" stroke="#FFA300" d="M53.894 173.055h13.819v-1.88h-13.82z"/>
        <path fill="#FFF" d="M113.776 173.055h13.818v-1.88h-13.818z"/>
        <path stroke-opacity=".6" stroke="#FFA300" d="M113.776 173.055h13.818v-1.88h-13.818z"/>
        <g>
            <path fill="#FFF" d="M129.437 173.055h13.819v-1.88h-13.82z"/>
            <path stroke-opacity=".6" stroke="#FFA300" d="M129.437 173.055h13.819v-1.88h-13.82z"/>
        </g>
        <g>
            <path fill="#FFF" d="M145.098 173.055h13.82v-1.88h-13.82z"/>
            <path stroke-opacity=".6" stroke="#FFA300" d="M145.098 173.055h13.82v-1.88h-13.82z"/>
        </g>
        <g>
            <path fill="#FFF" d="M69.555 173.055h42.378v-1.88H69.555z"/>
            <path stroke-opacity=".6" stroke="#FFA300" d="M69.555 173.055h42.378v-1.88H69.555z"/>
        </g>
        <g>
            <path d="M295.22 32.565c0-1.625-1.251-2.942-2.794-2.942H262.09c-1.543 0-2.794 1.317-2.794 2.942v1.681c0 1.625 1.25 2.942 2.794 2.942h30.335c1.543 0 2.794-1.317 2.794-2.942v-1.68zm3.991 1.681c0 3.946-3.038 7.145-6.785 7.145H262.09c-3.748 0-6.786-3.199-6.786-7.145v-1.68c0-3.946 3.038-7.146 6.786-7.146h30.335c3.747 0 6.785 3.2 6.785 7.145v1.681z" stroke="#FFA300"/>
            <path d="M296.417 33.826c0-1.625-1.25-2.942-2.794-2.942h-30.335c-1.543 0-2.794 1.317-2.794 2.942v1.681c0 1.625 1.251 2.942 2.794 2.942h30.335c1.543 0 2.794-1.317 2.794-2.942v-1.681zm3.992 1.681c0 3.946-3.039 7.145-6.786 7.145h-30.335c-3.747 0-6.785-3.2-6.785-7.145v-1.681c0-3.946 3.038-7.145 6.785-7.145h30.335c3.747 0 6.786 3.2 6.786 7.145v1.681z" fill-opacity=".2" fill="#FFA300"/>
            <path d="M341.52 167.477c0 6.036-4.645 10.928-10.377 10.928h-107.77c-5.731 0-10.377-4.892-10.377-10.928V156.55c0-6.036 4.646-10.928 10.378-10.928h107.769c5.732 0 10.378 4.892 10.378 10.928v10.927z" stroke="#FFA300"/>
            <path d="M341.122 167.057c0 6.035-3.91 10.927-9.552 10.927H225.474c-5.642 0-10.483-4.892-10.483-10.927v-10.928c0-6.035 4.84-10.927 10.483-10.927H331.57c5.642 0 9.552 4.892 9.552 10.927v10.928z" fill-opacity=".2" fill="#FFA300"/>
            <path d="M341.52 154.028c0 2.522-128.524 2.522-128.524 0V55.07c0-2.912 2.28-5.272 4.261-5.272h121.354c1.98 0 2.91 2.36 2.91 5.272v98.96z" fill="#FFF"/>
            <path d="M341.52 154.028c0 2.522-128.524 2.522-128.524 0V55.07c0-2.912 2.28-5.272 4.261-5.272h121.354c1.98 0 2.91 2.36 2.91 5.272v98.96z" stroke="#FFA300"/>
            <path d="M343.916 84.933c0 1.42-1.39 2.69-3.431 2.69H215.362c-2.041 0-3.963-1.27-3.963-2.69V39.29c0-1.418 1.922-4.623 3.963-4.623h125.123c2.042 0 3.43 2.364 3.43 3.783v46.484z" fill="#FFF"/>
            <path d="M343.916 84.933c0 1.42-1.39 2.69-3.431 2.69H215.362c-2.041 0-3.963-1.27-3.963-2.69V39.29c0-1.418 1.922-4.623 3.963-4.623h125.123c2.042 0 3.43 2.364 3.43 3.783v46.484z" stroke="#FFA300"/>
            <path d="M341.52 35.927V82.33c0 1.284-.124 2.771-2.096 2.771H218.601c-1.972 0-4.807-.912-4.807-2.196V35.927" stroke-dasharray="1.002,1.002" stroke-opacity=".6" stroke="#FFA300"/>
            <path d="M341.122 94.768s-20.04 1.68-63.458 1.68c-43.42 0-62.673-1.68-62.673-1.68v-7.566h126.13v7.566zM321.83 143.52c0 2.523-2.108 5.044-4.707 5.044h-76.097c-2.599 0-4.706-2.521-4.706-5.043h85.51z" fill-opacity=".2" fill="#FFA300"/>
            <path d="M320.765 141.42c0 2.785-2.144 5.043-4.79 5.043h-77.434c-2.645 0-4.79-2.258-4.79-5.044v-16.811c0-2.786 2.145-5.043 4.79-5.043h77.434c2.646 0 4.79 2.257 4.79 5.043v16.811z" fill="#FFF"/>
            <path d="M320.765 141.42c0 2.785-2.144 5.043-4.79 5.043h-77.434c-2.645 0-4.79-2.258-4.79-5.044v-16.811c0-2.786 2.145-5.043 4.79-5.043h77.434c2.646 0 4.79 2.257 4.79 5.043v16.811z" stroke="#FFA300"/>
            <path d="M314.379 133.54c0 .637-.492 1.155-1.098 1.155h-.2c-.605 0-1.097-.518-1.097-1.156v-7.775c0-.638.492-1.156 1.098-1.156h.2c.605 0 1.097.518 1.097 1.156v7.775z" stroke="#FFA300"/>
            <path d="M320.366 129.231s-15.269 1.681-42.31 1.681c-27.04 0-42.309-1.68-42.309-1.68v-4.204s10.777 1.892 41.511 1.892 43.108-1.892 43.108-1.892v4.203z" fill-opacity=".2" fill="#FFA300"/>
            <path d="M233.751 124.608c0-2.786 2.144-5.043 4.788-5.043h77.395c2.644 0 4.787 2.257 4.787 5.043 0 0-11.37 2.312-43.484 2.312-32.116 0-43.486-2.312-43.486-2.312" fill="#FFF"/>
            <path d="M233.751 124.608c0-2.786 2.144-5.043 4.788-5.043h77.395c2.644 0 4.787 2.257 4.787 5.043 0 0-11.37 2.312-43.484 2.312-32.116 0-43.486-2.312-43.486-2.312z" stroke="#FFA300"/>
            <path d="M255.704 107.797c0 2.088-1.608 3.782-3.592 3.782s-3.592-1.694-3.592-3.782V61.565c0-2.089 1.608-3.783 3.592-3.783s3.592 1.694 3.592 3.783v46.232z" fill-opacity=".2" fill="#FFA300"/>
            <path d="M254.507 105.695c0 2.089-1.609 3.783-3.592 3.783-1.984 0-3.593-1.694-3.593-3.783V59.464c0-2.09 1.609-3.783 3.593-3.783 1.983 0 3.592 1.694 3.592 3.783v46.231z" stroke="#F4B04E"/>
            <path d="M254.507 105.695c0 2.089-1.609 3.783-3.592 3.783-1.984 0-3.593-1.694-3.593-3.783V59.464c0-2.09 1.609-3.783 3.593-3.783 1.983 0 3.592 1.694 3.592 3.783v46.231z" stroke="#FFA300"/>
            <path d="M307.593 107.797c0 2.088-1.608 3.782-3.592 3.782s-3.592-1.694-3.592-3.782V61.565c0-2.089 1.608-3.783 3.592-3.783s3.592 1.694 3.592 3.783v46.232z" fill-opacity=".2" fill="#FFA300"/>
            <path d="M306.396 105.695c0 2.089-1.609 3.783-3.592 3.783-1.984 0-3.593-1.694-3.593-3.783V59.464c0-2.09 1.609-3.783 3.593-3.783 1.983 0 3.592 1.694 3.592 3.783v46.231z" stroke="#FFA300"/>
        </g>
        <g>
            <path d="M684.67 76.316c0-1.994-1.54-3.61-3.438-3.61h-37.335c-1.9 0-3.439 1.616-3.439 3.61v2.063c0 1.995 1.54 3.611 3.439 3.611h37.335c1.899 0 3.438-1.616 3.438-3.61v-2.064zm4.913 2.063c0 4.843-3.74 8.77-8.351 8.77h-37.335c-4.612 0-8.351-3.927-8.351-8.77v-2.063c0-4.842 3.74-8.769 8.35-8.769h37.336c4.611 0 8.35 3.927 8.35 8.77v2.062z" stroke="#FFA300"/>
            <path d="M686.144 77.864c0-1.994-1.54-3.611-3.439-3.611h-37.334c-1.9 0-3.44 1.617-3.44 3.61v2.064c0 1.994 1.54 3.61 3.44 3.61h37.334c1.9 0 3.439-1.616 3.439-3.61v-2.063zm4.912 2.063c0 4.842-3.739 8.769-8.35 8.769H645.37c-4.612 0-8.352-3.927-8.352-8.77v-2.062c0-4.843 3.74-8.77 8.352-8.77h37.334c4.612 0 8.351 3.927 8.351 8.77v2.063z" fill-opacity=".2" fill="#FFA300"/>
            <path d="M684.506 70.642c0 2.468-2.077 4.127-4.638 4.127h-33.626c-2.561 0-4.638-1.66-4.638-4.127 0-2.467 2.077-4.126 4.638-4.126h33.626c2.561 0 4.638 1.659 4.638 4.126" fill="#FFF"/>
            <path d="M684.506 70.642c0 2.468-2.077 4.127-4.638 4.127h-33.626c-2.561 0-4.638-1.66-4.638-4.127 0-2.467 2.077-4.126 4.638-4.126h33.626c2.561 0 4.638 1.659 4.638 4.126z" stroke="#FFA300"/>
            <path d="M684.506 72.19c0 2.467-1.933 4.126-4.319 4.126h-31.315c-2.386 0-4.32-1.659-4.32-4.126 0-2.468 1.934-4.127 4.32-4.127h31.315c2.386 0 4.32 1.66 4.32 4.127" fill-opacity=".3" fill="#FFA300"/>
            <path d="M745.585 171.808c0 3.951-2.64 7.155-5.895 7.155H588.386c-3.256 0-5.895-3.204-5.895-7.155v-86.79c0-3.951 2.64-7.154 5.895-7.154H739.69c3.256 0 5.895 3.203 5.895 7.154v86.79z" fill="#FFF"/>
            <path d="M745.585 171.808c0 3.951-2.64 7.155-5.895 7.155H588.386c-3.256 0-5.895-3.204-5.895-7.155v-86.79c0-3.951 2.64-7.154 5.895-7.154H739.69c3.256 0 5.895 3.203 5.895 7.154v86.79z" stroke="#FFA300"/>
            <path d="M745.093 129.512c0 3.95-40.477 16.439-80.595 16.439s-79.55-12.488-79.55-16.44V91.209c0-3.952 3.08-6.639 6.283-6.639h148.873c3.203 0 4.99 2.687 4.99 6.639v38.304z" fill-opacity=".2" fill="#FFA300"/>
            <path d="M745.585 123.322c0 3.951-41.756 16.439-82.53 16.439-40.773 0-80.564-12.488-80.564-16.439V85.018c0-3.951 2.64-7.154 5.895-7.154H739.69c3.256 0 5.895 3.203 5.895 7.154v38.304z" fill="#FFF"/>
            <path d="M745.585 123.322c0 3.951-41.756 16.439-82.53 16.439-40.773 0-80.564-12.488-80.564-16.439V85.018c0-3.951 2.64-7.154 5.895-7.154H739.69c3.256 0 5.895 3.203 5.895 7.154v38.304z" stroke="#FFA300"/>
            <path d="M664.547 89.727c-40.037 0-79.108-5.483-79.108-5.483 0-3.95 2.591-6.896 5.788-6.896h148.569c3.197 0 5.789 2.945 5.789 6.896 0 0-41.002 5.483-81.038 5.483" fill-opacity=".3" fill="#FFA300"/>
            <path d="M663.055 89.727c-40.773 0-80.564-5.225-80.564-5.225 0-3.951 2.64-6.638 5.895-6.638H739.69c3.256 0 5.895 2.687 5.895 6.638 0 0-41.756 5.225-82.53 5.225z" stroke="#FFA300"/>
            <path d="M663.074 92.067c-39.556 0-78.617-5.852-78.617-5.695v36.16c0 3.584 38.6 14.908 78.617 14.908 40.015 0 80.546-11.324 80.546-14.908V87.398c0-1.198-40.97 4.67-80.546 4.67z" stroke-opacity=".6" stroke="#FFA300" stroke-dasharray="1,1"/>
            <path d="M668.95 141.308c0 3.135-1.965 5.674-5.895 5.674-2.947 0-4.912-2.54-4.912-5.674v-14.442c0-3.134 2.419-5.674 5.404-5.674 2.984 0 5.403 2.54 5.403 5.674v14.442z" stroke="#FFA300"/>
            <path d="M670.424 141.308c0 3.135-1.965 5.674-5.895 5.674-2.947 0-4.912-2.54-4.912-5.674v-14.442c0-3.134 2.419-5.674 5.403-5.674 2.985 0 5.404 2.54 5.404 5.674v14.442zM741.163 174.32c0 1.14-.879 2.064-1.965 2.064h-114.95c-1.087 0-1.966-.924-1.966-2.064 0-1.14.88-2.063 1.965-2.063h114.951c1.086 0 1.965.923 1.965 2.063" fill-opacity=".2" fill="#FFA300"/>
            <path d="M618.352 174.32c0 1.14-.88 2.064-1.965 2.064h-15.72c-1.085 0-1.965-.924-1.965-2.064 0-1.14.88-2.063 1.965-2.063h15.72c1.086 0 1.965.923 1.965 2.063" fill-opacity=".3" fill="#FFA300"/>
        </g>
        <rect fill="#FFEDCC" opacity=".8" filter="url(#a)" x="423" y="207" width="90" height="6" rx="3"/>
        <rect fill="#FFEDCC" opacity=".8" filter="url(#b)" x="233" y="207" width="90" height="6" rx="3"/>
        <rect fill="#FFEDCC" opacity=".8" filter="url(#c)" x="604" y="207" width="120" height="6" rx="3"/>
        <g transform="translate(16 205)" fill="#FFEDCC" opacity=".6">
            <rect filter="url(#d)" x="15" y="2" width="120" height="6" rx="3"/>
            <rect filter="url(#e)" width="120" height="5" rx="2.5"/>
        </g>
        <rect fill="#FFEDCC" opacity=".8" filter="url(#f)" x="810" y="207" width="120" height="6" rx="3"/>
        <g transform="translate(789 77)">
            <path d="M102.429.508H57.225c-1.593 0-2.885 1.363-2.885 3.045v7.105h3.847v-3.31c0-1.536 1.18-2.78 2.635-2.78h38.01c1.456 0 2.635 1.244 2.635 2.78v3.31h3.847V3.553c0-1.682-1.292-3.045-2.885-3.045z" stroke="#FFA300"/>
            <path d="M104.352 2.03H59.15c-1.594 0-3.366.856-3.366 2.538v7.613h3.847V8.363c0-1.536 1.66-2.273 3.115-2.273h38.011c1.455 0 2.154.737 2.154 2.273v3.818h3.847V4.568c0-1.682-.811-2.538-2.405-2.538" fill-opacity=".2" fill="#FFA300"/>
            <path d="M160.135 90.847c0 3.364-2.583 6.09-5.77 6.09H6.251c-3.188 0-5.771-2.726-5.771-6.09V16.748c0-3.364 2.583-6.09 5.77-6.09h148.113c3.188 0 5.771 2.726 5.771 6.09v74.1z" fill="#FFF"/>
            <path d="M160.135 90.847c0 3.364-2.583 6.09-5.77 6.09H6.251c-3.188 0-5.771-2.726-5.771-6.09V16.748c0-3.364 2.583-6.09 5.77-6.09h148.113c3.188 0 5.771 2.726 5.771 6.09v74.1zM40.875 9.643c0 .56-.43 1.015-.961 1.015h-21.16c-.53 0-.961-.455-.961-1.015V8.628c0-.56.43-1.015.962-1.015h21.159c.53 0 .961.455.961 1.015v1.015zM40.875 98.968c0 .56-.43 1.015-.961 1.015h-21.16c-.53 0-.961-.455-.961-1.015v-1.015c0-.56.43-1.015.962-1.015h21.159c.53 0 .961.454.961 1.015v1.015zM143.785 9.643c0 .56-.43 1.015-.962 1.015h-21.159c-.53 0-.962-.455-.962-1.015V8.628c0-.56.431-1.015.962-1.015h21.16c.53 0 .961.455.961 1.015v1.015zM143.785 98.968c0 .56-.43 1.015-.962 1.015h-21.159c-.53 0-.962-.455-.962-1.015v-1.015c0-.56.431-1.015.962-1.015h21.16c.53 0 .961.454.961 1.015v1.015z" stroke="#FFA300"/>
            <path d="M43.28 10.15c0 .56-.431 1.016-.962 1.016H21.159c-.53 0-.962-.455-.962-1.015V9.135c0-.56.431-1.015.962-1.015h21.159c.53 0 .962.455.962 1.015v1.016zM43.28 99.475c0 .56-.431 1.015-.962 1.015H21.159c-.53 0-.962-.454-.962-1.015V98.46c0-.56.431-1.015.962-1.015h21.159c.53 0 .962.455.962 1.015v1.015zM146.19 99.475c0 .56-.431 1.015-.962 1.015h-21.16c-.53 0-.961-.454-.961-1.015V98.46c0-.56.43-1.015.962-1.015h21.159c.53 0 .961.455.961 1.015v1.015zM146.19 10.15c0 .56-.431 1.016-.962 1.016h-21.16c-.53 0-.961-.455-.961-1.015V9.135c0-.56.43-1.015.962-1.015h21.159c.53 0 .961.455.961 1.015v1.016z" fill-opacity=".2" fill="#FFA300"/>
            <path d="M36.547 100.49c0 .56-.43 1.015-.961 1.015H22.12c-.531 0-.962-.454-.962-1.015 0-.56.43-1.015.962-1.015h13.465c.53 0 .961.455.961 1.015M140.419 100.49c0 .56-.431 1.015-.962 1.015h-13.465c-.53 0-.962-.454-.962-1.015 0-.56.431-1.015.962-1.015h13.465c.53 0 .962.455.962 1.015" fill="#FFA300"/>
            <path d="M86.56 50.753V38.064c0-.56.05-.507-.481-.507h-6.733c-.53 0-1.442-.053-1.442.507v12.689h-11.06c-.532 0-1.443-.053-1.443.507v7.106c0 .56.911 1.522 1.442 1.522h11.06v11.673c0 .56.912 1.523 1.443 1.523h6.733c.53 0 .48-.962.48-1.523V59.888h12.023c.53 0 .48-.962.48-1.522V51.26c0-.56.05-.507-.48-.507H86.56z" fill-opacity=".2" fill="#FFA300"/>
            <path d="M96.658 49.23H85.117V37.05c0-.56-.431-1.016-.962-1.016h-6.732c-.531 0-.962.455-.962 1.015V49.23H64.92c-.531 0-.962.455-.962 1.015v7.105c0 .56.43 1.016.962 1.016h11.54v12.18c0 .56.432 1.015.963 1.015h6.732c.531 0 .962-.455.962-1.015v-12.18h11.541c.531 0 .962-.455.962-1.016v-7.105c0-.56-.431-1.015-.962-1.015z" stroke="#FFA300"/>
            <path fill-opacity=".2" fill="#FFA300" d="M20.197 97.445h25.006v-86.28H20.197zM123.107 97.445h25.006v-86.28h-25.006z"/>
            <mask id="h" fill="#fff">
                <use xlink:href="#g"/>
            </mask>
            <path fill="#FFF" mask="url(#h)" d="M119.74 96.938h25.007v-86.28H119.74z"/>
            <path stroke="#FFA300" mask="url(#h)" d="M119.74 96.938h25.007v-86.28H119.74z"/>
            <path fill="#FFF" mask="url(#h)" d="M16.831 96.938h25.006v-86.28H16.831z"/>
            <path stroke="#FFA300" mask="url(#h)" d="M16.831 96.938h25.006v-86.28H16.831z"/>
            <path fill-opacity=".3" fill="#FFA300" mask="url(#h)" d="M20.197 97.445h5.77V10.151h-5.77zM31.738 97.445h5.771V10.151h-5.77zM124.069 97.445h5.77V10.151h-5.77zM135.61 97.445h5.77V10.151h-5.77z"/>
        </g>
        <g>
            <path d="M529.296 171.368c0 3.256-2.145 6.323-4.79 6.323h-111.74c-2.644 0-4.712-3.067-4.712-6.323v-5.896c0-3.257 2.068-5.693 4.713-5.693h111.74c2.644 0 4.789 2.436 4.789 5.693v5.896z" fill="#FFF"/>
            <path d="M529.296 171.368c0 3.256-2.145 6.323-4.79 6.323h-111.74c-2.644 0-4.712-3.067-4.712-6.323v-5.896c0-3.257 2.068-5.693 4.713-5.693h111.74c2.644 0 4.789 2.436 4.789 5.693v5.896z" stroke="#FFA300"/>
            <path d="M526.359 160.206H415.207c-2.644 0-5.12 2.01-5.12 5.266v5.896c0 2.58 1.555 5.043 3.515 6.75h110.905c2.644 0 4.381-3.494 4.381-6.75v-5.896c0-2.448-.804-4.432-2.53-5.266" fill-opacity=".2" fill="#FFA300"/>
            <path d="M524.507 160.206h-111.74c-2.645 0-5.12 2.01-5.12 5.266v5.896c0 .498.257 1.203.349 1.683.844.891 2.13 1.654 3.312 1.654h113.919c1.696 0 2.984-1.345 3.86-2.995 0-.043-.199-.3-.199-.342v-5.896c0-3.257-1.737-5.266-4.381-5.266" fill-opacity=".2" fill="#FFA300"/>
            <path d="M530.11 166.454c0 3.257-2.186 6.12-4.883 6.12H411.308c-2.696 0-4.882-2.863-4.882-6.12v-5.896c0-3.256 2.186-5.896 4.882-5.896h113.92c2.696 0 4.881 2.64 4.881 5.896v5.896z" fill="#FFF"/>
            <path d="M530.11 166.454c0 3.257-2.186 6.12-4.883 6.12H411.308c-2.696 0-4.882-2.863-4.882-6.12v-5.896c0-3.256 2.186-5.896 4.882-5.896h113.92c2.696 0 4.881 2.64 4.881 5.896v5.896z" stroke="#FFA300"/>
            <path d="M413.75 156.794c-2.697 0-5.29 2.214-5.29 5.47v5.896c0 1.463.526 3.142 1.346 4.317.474.199.978.523 1.502.523h113.92c2.696 0 4.474-3.29 4.474-6.546v-5.896c0-1.318-.16-2.532-.765-3.515-.452-.16-.74-.249-1.269-.249H413.75z" fill-opacity=".3" fill="#FFA300"/>
            <path d="M467.86.426c-6.216 0-11.255 4.975-11.255 11.799h2.11c0-5.97 4.095-9.586 9.146-9.586 5.05 0 9.146 3.615 9.146 9.586h2.11c0-6.824-5.04-11.799-11.256-11.799z" stroke="#FFA300"/>
            <path d="M469.488 1.705c-6.216 0-11.256 4.976-11.256 11.799h2.11c0-5.97 4.096-9.586 9.146-9.586 5.05 0 9.146 3.615 9.146 9.586h2.11c0-6.823-5.039-11.799-11.256-11.799" fill-opacity=".2" fill="#FFA300"/>
            <path d="M541.501 128.932c0 6.54-.95 9.525-6.916 9.525H519.53c-.899 0-1.627-.764-1.627-1.706V93.252c0-.942.728-1.706 1.627-1.706h20.343c.899 0 1.627.764 1.627 1.706v35.68z" fill="#FFF"/>
            <path d="M541.501 128.932c0 6.54-.95 9.525-6.916 9.525H519.53c-.899 0-1.627-.764-1.627-1.706V93.252c0-.942.728-1.706 1.627-1.706h20.343c.899 0 1.627.764 1.627 1.706v35.68z" stroke="#FFA300"/>
            <path d="M540.687 94.531h-20.342c-.9 0-2.034.337-2.034 1.28v4.53c6.51 5.214 14.551 8.322 23.337 8.322.087 0 .26-.006.26-.007V95.811c0-.943-.321-1.28-1.22-1.28" fill-opacity=".2" fill="#FFA300"/>
            <path d="M517.904 128.222v8.529c0 .942.728 1.706 1.627 1.706h15.054c5.967 0 6.916-2.986 6.916-9.525v-.71h-23.597z" fill="#FFF"/>
            <path d="M517.904 128.222v8.529c0 .942.728 1.706 1.627 1.706h15.054c5.967 0 6.916-2.986 6.916-9.525v-.71h-23.597z" stroke="#FFA300"/>
            <path d="M517.497 130.354v6.415c0 .745 1.135 2.114 2.034 2.114h15.054c5.967 0 6.51-3.128 6.51-8.304v-.225h-23.598z" fill-opacity=".2" fill="#FFA300"/>
            <path d="M539.06 110.843c0 .648-.501 1.173-1.119 1.173h-.203c-.618 0-1.12-.525-1.12-1.173v-7.89c0-.647.502-1.172 1.12-1.172h.203c.618 0 1.119.525 1.119 1.173v7.89z" stroke="#FFA300"/>
            <path d="M539.874 91.546H519.53c-.899 0-1.627.763-1.627 1.706v4.53c6.462 5.215 14.551 8.323 23.338 8.323.087 0 .172-.006.26-.007V93.252c0-.943-.73-1.706-1.628-1.706" fill="#FFF"/>
            <path d="M539.874 91.546H519.53c-.899 0-1.627.763-1.627 1.706v4.53c6.462 5.215 14.551 8.323 23.338 8.323.087 0 .172-.006.26-.007V93.252c0-.943-.73-1.706-1.628-1.706z" stroke="#FFA300"/>
            <path d="M393.407 128.932c0 6.54.95 9.525 6.916 9.525h15.054c.899 0 1.627-.764 1.627-1.706V93.252c0-.942-.728-1.706-1.627-1.706h-20.343c-.899 0-1.627.764-1.627 1.706v35.68z" fill="#FFF"/>
            <path d="M393.407 128.932c0 6.54.95 9.525 6.916 9.525h15.054c.899 0 1.627-.764 1.627-1.706V93.252c0-.942-.728-1.706-1.627-1.706h-20.343c-.899 0-1.627.764-1.627 1.706v35.68z" stroke="#FFA300"/>
            <path d="M394.22 94.531h20.343c.9 0 2.034.337 2.034 1.28v4.53c-6.51 5.214-14.551 8.322-23.337 8.322-.087 0-.26-.006-.26-.007V95.811c0-.943.321-1.28 1.22-1.28" fill-opacity=".2" fill="#FFA300"/>
            <path d="M417.004 128.222v8.529c0 .942-.728 1.706-1.627 1.706h-15.054c-5.967 0-6.916-2.986-6.916-9.525v-.71h23.597z" fill="#FFF"/>
            <path d="M417.004 128.222v8.529c0 .942-.728 1.706-1.627 1.706h-15.054c-5.967 0-6.916-2.986-6.916-9.525v-.71h23.597z" stroke="#FFA300"/>
            <path d="M417.411 130.354v6.415c0 .745-1.135 2.114-2.034 2.114h-15.054c-5.967 0-6.51-3.128-6.51-8.304v-.225h23.598z" fill-opacity=".2" fill="#FFA300"/>
            <path d="M398.29 102.954c0-.648-.502-1.173-1.12-1.173h-.203c-.618 0-1.119.525-1.119 1.173v7.89c0 .647.501 1.172 1.119 1.172h.203c.618 0 1.12-.525 1.12-1.173v-7.89z" stroke="#FFA300"/>
            <path d="M395.034 91.546h20.343c.899 0 1.627.763 1.627 1.706v4.53c-6.51 5.215-14.551 8.323-23.338 8.323-.087 0-.26-.006-.26-.007V93.252c0-.943.73-1.706 1.628-1.706" fill="#FFF"/>
            <path d="M395.034 91.546h20.343c.899 0 1.627.763 1.627 1.706v4.53c-6.51 5.215-14.551 8.323-23.338 8.323-.087 0-.26-.006-.26-.007V93.252c0-.943.73-1.706 1.628-1.706z" stroke="#FFA300"/>
            <path d="M415.377 138.883c.899 0 1.22-2.222 1.22-2.967V92.399c0-.942-.321-1.28-1.22-1.28h-14.348c-1.78 21.324-1.726 40.992-1.638 47.726.297.023.604.038.932.038h15.054zM517.497 92.399v37.955h-.814v5.562c0 .745 1.949 2.967 2.848 2.967h15.054c.383 0 .74-.019 1.08-.049.087-6.745.141-26.391-1.639-47.714h-14.495c-.899 0-2.034.337-2.034 1.279" fill-opacity=".2" fill="#FFA300"/>
            <path d="M501.158 20.754H467.6c-.025 0-.049.004-.073.004-.025 0-.049-.004-.074-.004h-33.556c-33.567 0-30.48 117.971-30.48 117.971 0 19.135 21.5 19.349 25.335 19.349h77.548c3.837 0 25.337-.214 25.337-19.349 0 0 3.087-117.971-30.48-117.971" fill="#FFF"/>
            <path d="M501.158 20.754H467.6c-.025 0-.049.004-.073.004-.025 0-.049-.004-.074-.004h-33.556c-33.567 0-30.48 117.971-30.48 117.971 0 19.135 21.5 19.349 25.335 19.349h77.548c3.837 0 25.337-.214 25.337-19.349 0 0 3.087-117.971-30.48-117.971z" stroke="#FFA300"/>
            <path d="M501.158 21.18H467.6c-.025 0-.049.005-.073.005-.025 0-.049-.005-.074-.005h-33.556c-4.973 0-9.136 2.391-12.63 6.802L410.755 87.62c0 4.69 3.174 8.617 7.088 8.617h99.224c3.914 0 7.088-4.034 7.088-8.723l-11.402-60.76c-3.274-3.66-7.104-5.574-11.594-5.574" fill-opacity=".2" fill="#FFA300"/>
            <path d="M518.717 83.87c0 4.24-2.869 7.676-6.408 7.676H422.6c-3.54 0-6.408-3.436-6.408-7.676l11.391-64.822c0-4.24 2.87-7.676 6.408-7.676h66.216c3.538 0 6.408 3.436 6.408 7.676l12.103 64.822z" fill="#FFF"/>
            <path d="M518.717 83.87c0 4.24-2.869 7.676-6.408 7.676H422.6c-3.54 0-6.408-3.436-6.408-7.676l11.391-64.822c0-4.24 2.87-7.676 6.408-7.676h66.216c3.538 0 6.408 3.436 6.408 7.676l12.103 64.822z" stroke="#FFA300"/>
            <path d="M516.536 82.49c0 4.06-2.747 7.35-6.135 7.35h-85.893c-3.39 0-6.136-3.29-6.136-7.35l10.907-62.063c0-4.059 2.747-7.35 6.136-7.35H498.812c3.388 0 6.135 3.291 6.135 7.35l11.589 62.064z" stroke="#FFA300" stroke-dasharray="3.983,3.983"/>
            <path d="M403.411 138.457l.007.268c0 19.135 21.5 19.349 25.335 19.349h77.548c3.836 0 25.337-.214 25.337-19.349l.006-.268H403.41z" fill="#FFF"/>
            <path d="M403.411 138.457l.007.268c0 19.135 21.5 19.349 25.335 19.349h77.548c3.836 0 25.337-.214 25.337-19.349l.006-.268H403.41z" stroke="#FFA300"/>
            <path d="M428.753 158.5h77.548c3.645 0 23.218-.631 25.167-17.058h-127.88c1.948 16.427 21.522 17.058 25.165 17.058" fill-opacity=".2" fill="#FFA300"/>
            <path d="M518.717 136.111c0 5.3-3.236 10.022-7.73 10.022h-85.439c-4.494 0-8.544-4.723-8.544-10.022v-11.514c0-5.3 4.05-9.17 8.544-9.17h85.44c4.493 0 7.73 3.87 7.73 9.17v11.514z" fill="#FFF"/>
            <path d="M518.717 136.111c0 5.3-3.236 10.022-7.73 10.022h-85.439c-4.494 0-8.544-4.723-8.544-10.022v-11.514c0-5.3 4.05-9.17 8.544-9.17h85.44c4.493 0 7.73 3.87 7.73 9.17v11.514z" stroke="#FFA300"/>
            <path d="M518.717 130.78c0 5.118-101.713 5.118-101.713 0v-8.742c0-5.3 4.05-9.169 8.544-9.169h85.44c4.493 0 7.73 3.87 7.73 9.169v8.742z" fill="#FFF"/>
            <path d="M518.717 130.78c0 5.118-101.713 5.118-101.713 0v-8.742c0-5.3 4.05-9.169 8.544-9.169h85.44c4.493 0 7.73 3.87 7.73 9.169v8.742z" stroke="#FFA300"/>
            <path d="M416.597 133.339v5.33c0 5.3 4.457 10.449 8.951 10.449h85.44c4.493 0 7.323-5.15 7.323-10.448v-4.795c-6.854 4.574-101.714 4.396-101.714-.536M462.979 13.504v95.527c0 4.003 3.097 7.25 6.916 7.25 3.82 0 6.917-3.247 6.917-7.25V13.504h-13.833z" fill-opacity=".2" fill="#FFA300"/>
            <path d="M460.944 11.372v95.953c0 4.004 3.097 7.25 6.917 7.25s6.916-3.246 6.916-7.25V11.372h-13.833z" fill="#FFF"/>
            <path d="M460.944 11.372v95.953c0 4.004 3.097 7.25 6.917 7.25s6.916-3.246 6.916-7.25V11.372h-13.833z" stroke="#FFA300"/>
            <path d="M484.542 60.841c0 .943-.728 1.706-1.628 1.706h-30.107c-.899 0-1.627-.763-1.627-1.706v-5.97c0-.943.728-1.706 1.627-1.706h30.107c.9 0 1.628.763 1.628 1.706v5.97z" fill="#FFF"/>
            <path d="M484.542 60.841c0 .943-.728 1.706-1.628 1.706h-30.107c-.899 0-1.627-.763-1.627-1.706v-5.97c0-.943.728-1.706 1.627-1.706h30.107c.9 0 1.628.763 1.628 1.706v5.97z" stroke="#FFA300"/>
            <path d="M484.949 62.12c0 .943-.729 1.706-1.628 1.706h-30.107c-.899 0-1.627-.763-1.627-1.706v-5.97c0-.942.728-1.706 1.627-1.706h30.107c.9 0 1.628.764 1.628 1.706v5.97z" fill-opacity=".2" fill="#FFA300"/>
            <path d="M472.336 22.46c0 .942-.728 1.706-1.627 1.706h-5.696c-.9 0-1.628-.764-1.628-1.706 0-.943.729-1.706 1.628-1.706h5.696c.899 0 1.627.763 1.627 1.706" fill="#FFF"/>
            <path d="M472.336 22.46c0 .942-.728 1.706-1.627 1.706h-5.696c-.9 0-1.628-.764-1.628-1.706 0-.943.729-1.706 1.628-1.706h5.696c.899 0 1.627.763 1.627 1.706z" stroke="#FFA300"/>
            <path d="M472.743 23.74c0 .942-.728 1.705-1.627 1.705h-5.696c-.9 0-1.628-.763-1.628-1.706 0-.942.729-1.706 1.628-1.706h5.696c.899 0 1.627.764 1.627 1.706" fill-opacity=".2" fill="#FFA300"/>
            <path d="M472.336 33.548c0 .942-.728 1.706-1.627 1.706h-5.696c-.9 0-1.628-.764-1.628-1.706 0-.943.729-1.706 1.628-1.706h5.696c.899 0 1.627.763 1.627 1.706" fill="#FFF"/>
            <path d="M472.336 33.548c0 .942-.728 1.706-1.627 1.706h-5.696c-.9 0-1.628-.764-1.628-1.706 0-.943.729-1.706 1.628-1.706h5.696c.899 0 1.627.763 1.627 1.706z" stroke="#FFA300"/>
            <path d="M472.743 34.827c0 .943-.728 1.706-1.627 1.706h-5.696c-.9 0-1.628-.763-1.628-1.706 0-.942.729-1.706 1.628-1.706h5.696c.899 0 1.627.764 1.627 1.706" fill-opacity=".2" fill="#FFA300"/>
            <path d="M472.336 44.636c0 .942-.728 1.706-1.627 1.706h-5.696c-.9 0-1.628-.764-1.628-1.706 0-.943.729-1.706 1.628-1.706h5.696c.899 0 1.627.763 1.627 1.706" fill="#FFF"/>
            <path d="M472.336 44.636c0 .942-.728 1.706-1.627 1.706h-5.696c-.9 0-1.628-.764-1.628-1.706 0-.943.729-1.706 1.628-1.706h5.696c.899 0 1.627.763 1.627 1.706z" stroke="#FFA300"/>
            <path d="M472.743 45.915c0 .943-.728 1.706-1.627 1.706h-5.696c-.9 0-1.628-.763-1.628-1.706 0-.942.729-1.706 1.628-1.706h5.696c.899 0 1.627.764 1.627 1.706" fill-opacity=".2" fill="#FFA300"/>
            <path d="M472.336 71.929c0 .942-.728 1.706-1.627 1.706h-5.696c-.9 0-1.628-.764-1.628-1.706s.729-1.706 1.628-1.706h5.696c.899 0 1.627.764 1.627 1.706" fill="#FFF"/>
            <path d="M472.336 71.929c0 .942-.728 1.706-1.627 1.706h-5.696c-.9 0-1.628-.764-1.628-1.706s.729-1.706 1.628-1.706h5.696c.899 0 1.627.764 1.627 1.706z" stroke="#FFA300"/>
            <path d="M472.743 73.208c0 .943-.728 1.706-1.627 1.706h-5.696c-.9 0-1.628-.763-1.628-1.706 0-.942.729-1.705 1.628-1.705h5.696c.899 0 1.627.763 1.627 1.705" fill-opacity=".2" fill="#FFA300"/>
            <path d="M472.336 83.017c0 .942-.728 1.706-1.627 1.706h-5.696c-.9 0-1.628-.764-1.628-1.706 0-.943.729-1.706 1.628-1.706h5.696c.899 0 1.627.763 1.627 1.706" fill="#FFF"/>
            <path d="M472.336 83.017c0 .942-.728 1.706-1.627 1.706h-5.696c-.9 0-1.628-.764-1.628-1.706 0-.943.729-1.706 1.628-1.706h5.696c.899 0 1.627.763 1.627 1.706z" stroke="#FFA300"/>
            <path d="M472.743 84.296c0 .943-.728 1.706-1.627 1.706h-5.696c-.9 0-1.628-.763-1.628-1.706 0-.942.729-1.706 1.628-1.706h5.696c.899 0 1.627.764 1.627 1.706" fill-opacity=".2" fill="#FFA300"/>
            <path d="M472.336 95.81c0 .943-.728 1.707-1.627 1.707h-5.696c-.9 0-1.628-.764-1.628-1.706 0-.943.729-1.706 1.628-1.706h5.696c.899 0 1.627.763 1.627 1.706" fill="#FFF"/>
            <path d="M472.336 95.81c0 .943-.728 1.707-1.627 1.707h-5.696c-.9 0-1.628-.764-1.628-1.706 0-.943.729-1.706 1.628-1.706h5.696c.899 0 1.627.763 1.627 1.706z" stroke="#FFA300"/>
            <path d="M472.743 97.09c0 .943-.728 1.706-1.627 1.706h-5.696c-.9 0-1.628-.763-1.628-1.706 0-.942.729-1.706 1.628-1.706h5.696c.899 0 1.627.764 1.627 1.706M441.009 177.264c0 .471-.365.853-.814.853h-3.255c-.45 0-.814-.382-.814-.853v-29.852c0-.47.365-.853.814-.853h3.255c.45 0 .814.382.814.853v29.852zM502.85 177.264c0 .471-.364.853-.814.853h-3.254c-.45 0-.814-.382-.814-.853v-29.852c0-.47.364-.853.814-.853h3.254c.45 0 .814.382.814.853v29.852z" fill-opacity=".2" fill="#FFA300"/>
            <path d="M500.816 176.838c0 .47-.365.853-.814.853h-3.255c-.449 0-.813-.382-.813-.853v-29.852c0-.471.364-.853.813-.853h3.255c.45 0 .814.382.814.853v29.852z" fill="#FFF"/>
            <path d="M500.816 176.838c0 .47-.365.853-.814.853h-3.255c-.449 0-.813-.382-.813-.853v-29.852c0-.471.364-.853.813-.853h3.255c.45 0 .814.382.814.853v29.852z" stroke="#FFA300"/>
            <path d="M438.974 176.838c0 .47-.364.853-.813.853h-3.255c-.45 0-.814-.382-.814-.853v-29.852c0-.471.365-.853.814-.853h3.255c.449 0 .813.382.813.853v29.852z" fill="#FFF"/>
            <path d="M438.974 176.838c0 .47-.364.853-.813.853h-3.255c-.45 0-.814-.382-.814-.853v-29.852c0-.471.365-.853.814-.853h3.255c.449 0 .813.382.813.853v29.852z" stroke="#FFA300"/>
        </g>
    </g>
</svg>
