<?xml version="1.0" encoding="UTF-8"?>
<svg width="314px" height="277px" viewBox="0 0 314 277" version="1.1" xmlns="http://www.w3.org/2000/svg" xmlns:xlink="http://www.w3.org/1999/xlink">
    <!-- Generator: Sketch 40.3 (33839) - http://www.bohemiancoding.com/sketch -->
    <title>Group 2</title>
    <desc>Created with Sketch.</desc>
    <defs>
        <rect id="path-1" x="0" y="0" width="103.683141" height="123.475983" rx="6"></rect>
        <mask id="mask-2" maskContentUnits="userSpaceOnUse" maskUnits="objectBoundingBox" x="0" y="0" width="103.683141" height="123.475983" fill="white">
            <use xlink:href="#path-1"></use>
        </mask>
        <rect id="path-3" x="0" y="0" width="103.683141" height="123.475983" rx="6"></rect>
        <mask id="mask-4" maskContentUnits="userSpaceOnUse" maskUnits="objectBoundingBox" x="0" y="0" width="103.683141" height="123.475983" fill="white">
            <use xlink:href="#path-3"></use>
        </mask>
        <rect id="path-5" x="0" y="0" width="82.5438595" height="98.3792383" rx="6"></rect>
        <mask id="mask-6" maskContentUnits="userSpaceOnUse" maskUnits="objectBoundingBox" x="0" y="0" width="82.5438595" height="98.3792383" fill="white">
            <use xlink:href="#path-5"></use>
        </mask>
        <rect id="path-7" x="0" y="0" width="82.5438595" height="98.3792383" rx="6"></rect>
        <mask id="mask-8" maskContentUnits="userSpaceOnUse" maskUnits="objectBoundingBox" x="0" y="0" width="82.5438595" height="98.3792383" fill="white">
            <use xlink:href="#path-7"></use>
        </mask>
        <rect id="path-9" x="0" y="0" width="84.5571243" height="100.386978" rx="6"></rect>
        <mask id="mask-10" maskContentUnits="userSpaceOnUse" maskUnits="objectBoundingBox" x="0" y="0" width="84.5571243" height="100.386978" fill="white">
            <use xlink:href="#path-9"></use>
        </mask>
        <rect id="path-11" x="0" y="0" width="85.5637568" height="101.390848" rx="6"></rect>
        <mask id="mask-12" maskContentUnits="userSpaceOnUse" maskUnits="objectBoundingBox" x="0" y="0" width="85.5637568" height="101.390848" fill="white">
            <use xlink:href="#path-11"></use>
        </mask>
        <rect id="path-13" x="0" y="0" width="58.3846811" height="69.2670147" rx="6"></rect>
        <mask id="mask-14" maskContentUnits="userSpaceOnUse" maskUnits="objectBoundingBox" x="0" y="0" width="58.3846811" height="69.2670147" fill="white">
            <use xlink:href="#path-13"></use>
        </mask>
        <rect id="path-15" x="0" y="0" width="103.683141" height="123.475983" rx="6"></rect>
        <mask id="mask-16" maskContentUnits="userSpaceOnUse" maskUnits="objectBoundingBox" x="0" y="0" width="103.683141" height="123.475983" fill="white">
            <use xlink:href="#path-15"></use>
        </mask>
    </defs>
    <g id="Page-1" stroke="none" stroke-width="1" fill="none" fill-rule="evenodd">
        <g id="Individual-Copy" transform="translate(-888.000000, -1070.000000)">
            <g id="Group-27" transform="translate(0.000000, 974.000000)">
                <g id="Group-2" transform="translate(888.000000, 96.000000)">
                    <g id="Group-Copy-11" opacity="0.05" transform="translate(107.000000, 46.000000)">
                        <use id="Rectangle-25" stroke="#FFA300" mask="url(#mask-2)" stroke-width="4" fill="#FFFFFF" xlink:href="#path-1"></use>
                        <rect id="Rectangle-25" fill="#FFEDCC" x="7.04642703" y="7.02708845" width="94.6234487" height="114.441155" rx="4"></rect>
                        <rect id="Rectangle-26" fill="#FFD790" x="18.1193838" y="30.1160934" width="60.397946" height="8.03095823" rx="4.01547912"></rect>
                        <rect id="Rectangle-26-Copy" fill="#FFD790" x="18.1193838" y="45.17414" width="60.397946" height="8.03095823" rx="4.01547912"></rect>
                        <rect id="Rectangle-26-Copy-2" fill="#FFCE7C" x="18.1193838" y="61.2360565" width="60.397946" height="8.03095823" rx="4.01547912"></rect>
                        <rect id="Rectangle-26-Copy-3" fill="#FFD790" x="18.1193838" y="76.2941032" width="60.397946" height="8.03095823" rx="4.01547912"></rect>
                    </g>
                    <g id="Group-Copy-10" opacity="0.1" transform="translate(107.000000, 23.000000)">
                        <use id="Rectangle-25" stroke="#FFA300" mask="url(#mask-4)" stroke-width="4" fill="#FFFFFF" xlink:href="#path-3"></use>
                        <rect id="Rectangle-25" fill="#FFEDCC" x="7.04642703" y="7.02708845" width="94.6234487" height="114.441155" rx="4"></rect>
                        <rect id="Rectangle-26" fill="#FFD790" x="18.1193838" y="30.1160934" width="60.397946" height="8.03095823" rx="4.01547912"></rect>
                        <rect id="Rectangle-26-Copy" fill="#FFD790" x="18.1193838" y="45.17414" width="60.397946" height="8.03095823" rx="4.01547912"></rect>
                        <rect id="Rectangle-26-Copy-2" fill="#FFCE7C" x="18.1193838" y="61.2360565" width="60.397946" height="8.03095823" rx="4.01547912"></rect>
                        <rect id="Rectangle-26-Copy-3" fill="#FFD790" x="18.1193838" y="76.2941032" width="60.397946" height="8.03095823" rx="4.01547912"></rect>
                    </g>
                    <g id="Group-Copy-2" opacity="0.4" transform="translate(0.000000, 93.359889)">
                        <use id="Rectangle-25" stroke="#FFDA9A" mask="url(#mask-6)" stroke-width="4" fill="#FFFFFF" xlink:href="#path-5"></use>
                        <rect id="Rectangle-25" fill="#FFF5E5" x="5.60977686" y="5.59881844" width="75.3312892" height="91.1807575" rx="4"></rect>
                        <rect id="Rectangle-26" fill="#FFE5B8" x="14.4251405" y="23.9949362" width="48.0838016" height="6.39864965" rx="3.19932482"></rect>
                        <rect id="Rectangle-26-Copy" fill="#FFE5B8" x="14.4251405" y="35.9924043" width="48.0838016" height="6.39864965" rx="3.19932482"></rect>
                        <rect id="Rectangle-26-Copy-2" fill="#FFDCA0" x="14.4251405" y="48.7897036" width="48.0838016" height="6.39864965" rx="3.19932482"></rect>
                        <rect id="Rectangle-26-Copy-3" fill="#FFE5B8" x="14.4251405" y="60.7871717" width="48.0838016" height="6.39864965" rx="3.19932482"></rect>
                    </g>
                    <g id="Group-Copy-7" opacity="0.3" transform="translate(230.518827, 50.193489)">
                        <use id="Rectangle-25" stroke="#FFDA9A" mask="url(#mask-8)" stroke-width="4" fill="#FFFFFF" xlink:href="#path-7"></use>
                        <rect id="Rectangle-25" fill="#FFF5E5" x="5.60977686" y="5.59881844" width="75.3312892" height="91.1807575" rx="4"></rect>
                        <rect id="Rectangle-26" fill="#FFE5B8" x="14.4251405" y="23.9949362" width="48.0838016" height="6.39864965" rx="3.19932482"></rect>
                        <rect id="Rectangle-26-Copy" fill="#FFE5B8" x="14.4251405" y="35.9924043" width="48.0838016" height="6.39864965" rx="3.19932482"></rect>
                        <rect id="Rectangle-26-Copy-2" fill="#FFDCA0" x="14.4251405" y="48.7897036" width="48.0838016" height="6.39864965" rx="3.19932482"></rect>
                        <rect id="Rectangle-26-Copy-3" fill="#FFE5B8" x="14.4251405" y="60.7871717" width="48.0838016" height="6.39864965" rx="3.19932482"></rect>
                    </g>
                    <g id="Group-Copy-6" opacity="0.9" transform="translate(41.271930, 150.580467)">
                        <use id="Rectangle-25" stroke="#FFDA9A" mask="url(#mask-10)" stroke-width="4" fill="#FFFFFF" xlink:href="#path-9"></use>
                        <rect id="Rectangle-25" fill="#FFF5E5" x="5.74660068" y="5.71308004" width="77.1686378" height="93.0415893" rx="4"></rect>
                        <rect id="Rectangle-26" fill="#FFE5B8" x="14.7769732" y="24.4846288" width="49.2565773" height="6.52923433" rx="3.26461717"></rect>
                        <rect id="Rectangle-26-Copy" fill="#FFE5B8" x="14.7769732" y="36.7269431" width="49.2565773" height="6.52923433" rx="3.26461717"></rect>
                        <rect id="Rectangle-26-Copy-2" fill="#FFDCA0" x="14.7769732" y="49.7854118" width="49.2565773" height="6.52923433" rx="3.26461717"></rect>
                        <rect id="Rectangle-26-Copy-3" fill="#FFE5B8" x="14.7769732" y="62.0277262" width="49.2565773" height="6.52923433" rx="3.26461717"></rect>
                    </g>
                    <g id="Group-Copy-8" transform="translate(200.319854, 134.518550)">
                        <use id="Rectangle-25" stroke="#FFDA9A" mask="url(#mask-12)" stroke-width="4" fill="#FFFFFF" xlink:href="#path-11"></use>
                        <rect id="Rectangle-25" fill="#FFF5E5" x="4.80838016" y="4.76634106" width="78.087312" height="93.9720052" rx="3"></rect>
                        <rect id="Rectangle-26" fill="#FFE5B8" x="14.9528895" y="24.729475" width="49.8429651" height="6.59452668" rx="3.29726334"></rect>
                        <rect id="Rectangle-26-Copy" fill="#FFE5B8" x="14.9528895" y="37.0942126" width="49.8429651" height="6.59452668" rx="3.29726334"></rect>
                        <rect id="Rectangle-26-Copy-2" fill="#FFDCA0" x="14.9528895" y="50.2832659" width="49.8429651" height="6.59452668" rx="3.29726334"></rect>
                        <rect id="Rectangle-26-Copy-3" fill="#FFE5B8" x="14.9528895" y="62.6480034" width="49.8429651" height="6.59452668" rx="3.29726334"></rect>
                    </g>
                    <g id="Group-Copy-9" transform="translate(161.061189, 206.797174)">
                        <use id="Rectangle-25" stroke="#FFDA9A" mask="url(#mask-14)" stroke-width="4" fill="#FFFFFF" xlink:href="#path-13"></use>
                        <rect id="Rectangle-25" fill="#FFF5E5" x="5.98115581" y="5.94976479" width="50.3316216" height="61.2360565" rx="3"></rect>
                        <rect id="Rectangle-26" fill="#FFE5B8" x="10.2031482" y="16.8943938" width="34.0104938" height="4.50517169" rx="2.25258585"></rect>
                        <rect id="Rectangle-26-Copy" fill="#FFE5B8" x="10.2031482" y="25.3415908" width="34.0104938" height="4.50517169" rx="2.25258585"></rect>
                        <rect id="Rectangle-26-Copy-2" fill="#FFDCA0" x="10.2031482" y="34.3519341" width="34.0104938" height="4.50517169" rx="2.25258585"></rect>
                        <rect id="Rectangle-26-Copy-3" fill="#FFE5B8" x="10.2031482" y="42.7991311" width="34.0104938" height="4.50517169" rx="2.25258585"></rect>
                    </g>
                    <g id="Group-Copy-4" transform="translate(107.000000, 0.000000)">
                        <use id="Rectangle-25" stroke="#FFA300" mask="url(#mask-16)" stroke-width="4" fill="#FFFFFF" xlink:href="#path-15"></use>
                        <rect id="Rectangle-25" fill="#FFEDCC" x="7.04642703" y="7.02708845" width="94.6234487" height="114.441155" rx="4"></rect>
                        <rect id="Rectangle-26" fill="#FFD790" x="18.1193838" y="30.1160934" width="60.397946" height="8.03095823" rx="4.01547912"></rect>
                        <rect id="Rectangle-26-Copy" fill="#FFD790" x="18.1193838" y="45.17414" width="60.397946" height="8.03095823" rx="4.01547912"></rect>
                        <rect id="Rectangle-26-Copy-2" fill="#FFCE7C" x="18.1193838" y="61.2360565" width="60.397946" height="8.03095823" rx="4.01547912"></rect>
                        <rect id="Rectangle-26-Copy-3" fill="#FFD790" x="18.1193838" y="76.2941032" width="60.397946" height="8.03095823" rx="4.01547912"></rect>
                    </g>

                    <!-- trail -->
                    <g class="trail" transform="translate(140.000000, 130.000000)">
                        <g class="trail-1">
                            <rect id="Rectangle-24" fill="#FFA105" x="17.0479244" y="18.5727273" width="4.02652973" height="46.1780098" rx="2.01326487"></rect>
                            <rect id="Rectangle-24-Copy" fill="#FFCD7D" x="17.0479244" y="6.52628993" width="4.02652973" height="8.03095823" rx="2.01326487"></rect>
                        </g>
                        
                        <g class="trail-2">
                            <rect id="Rectangle-24-Copy-5" fill="#FFCD7D" x="0.941805442" y="4.51855037" width="4.02652973" height="35.1354423" rx="2.01326487"></rect>
                            <rect id="Rectangle-24-Copy-6" fill="#FCB45B" x="0.941805442" y="43.6694717" width="4.02652973" height="10.0386978" rx="2.01326487"></rect>
                            
                            <rect id="Rectangle-24-Copy-2" fill="#FFCD7D" x="33.1540433" y="0.503071253" width="4.02652973" height="30.1160934" rx="2.01326487"></rect>
                            <rect id="Rectangle-24-Copy-3" fill="#FCB45B" x="33.1540433" y="34.6346437" width="4.02652973" height="15.0580467" rx="2.01326487"></rect>
                        </g>
                    </g>

                    <!-- circle -->
                    <g class="circle-1">
                        <ellipse id="Oval-3" fill-opacity="0.6" fill="#F5A231" cx="77.0073811" cy="19.5754607" rx="3.52321351" ry="3.51354423"></ellipse>
                        <ellipse id="Oval-3-Copy" fill-opacity="0.3" fill="#F5A231" cx="64.9277919" cy="35.6373771" rx="2.51658108" ry="2.50967445"></ellipse>
                        <ellipse id="Oval-3-Copy-9" fill-opacity="0.3" fill="#F5A231" cx="65.9344243" cy="68.7650799" rx="3.52321351" ry="3.51354423"></ellipse>
                        <ellipse id="Oval-3-Copy-10" fill="#FFE3C1" cx="271.287441" cy="16.5638514" rx="3.52321351" ry="3.51354423"></ellipse>
                        <ellipse id="Oval-3-Copy-3" fill-opacity="0.3" fill="#F5A231" cx="237.061938" cy="25.5986794" rx="2.51658108" ry="2.50967445"></ellipse>
                        <ellipse id="Oval-3-Copy-4" fill="#FFD080" cx="262.227749" cy="39.6528563" rx="1.50994865" ry="1.50580467"></ellipse>
                    </g>
                    <g class="circle-2">
                        <ellipse id="Oval-3-Copy-7" fill-opacity="0.3" fill="#F5A231" cx="218.942554" cy="44.6722052" rx="1.50994865" ry="1.50580467"></ellipse>
                        <ellipse id="Oval-3-Copy-6" fill-opacity="0.3" fill="#F5A231" cx="81.0339108" cy="80.8115172" rx="1.50994865" ry="1.50580467"></ellipse>
                        <ellipse id="Oval-3-Copy-5" fill="#FEC684" cx="237.565254" cy="88.3405405" rx="3.0198973" ry="3.01160934"></ellipse>
                        <ellipse id="Oval-3-Copy-11" fill="#FEC684" cx="268.77086" cy="74.2863636" rx="2.01326487" ry="2.00773956"></ellipse>
                        <ellipse id="Oval-3-Copy-2" fill-opacity="0.5" fill="#FFA300" cx="91.1002352" cy="52.7031634" rx="2.51658108" ry="2.50967445"></ellipse>
                        <ellipse id="Oval-3-Copy-8" fill-opacity="0.5" fill="#FFA300" cx="40.7686135" cy="63.745731" rx="1.50994865" ry="1.50580467"></ellipse>
                    </g>
                </g>
            </g>
        </g>
    </g>
</svg>
