<?xml version="1.0" standalone="no"?>
<!DOCTYPE svg PUBLIC "-//W3C//DTD SVG 20010904//EN"
 "http://www.w3.org/TR/2001/REC-SVG-20010904/DTD/svg10.dtd">
<svg version="1.0" xmlns="http://www.w3.org/2000/svg"
 width="260.000000pt" height="260.000000pt" viewBox="0 0 260.000000 260.000000"
 preserveAspectRatio="xMidYMid meet">
<metadata>
Created by potrace 1.11, written by Peter Selinger 2001-2013
</metadata>
<g transform="translate(0.000000,260.000000) scale(0.100000,-0.100000)"
fill="#000000" stroke="none">
<path d="M540 1385 l0 -1084 108 -3 107 -3 2 -82 c1 -46 2 -86 2 -90 1 -5 292
-7 648 -7 l648 2 3 1051 2 1050 -100 -1 c-56 0 -104 3 -108 7 -4 3 -7 59 -7
123 l-1 117 -652 3 -652 2 0 -1085z m1201 973 c1 -13 1 -100 0 -128 -1 -13
-62 -15 -490 -13 -449 1 -489 0 -493 -15 -2 -10 -3 -419 -2 -909 l1 -893 -59
0 -58 0 0 985 0 985 550 0 c433 0 550 -3 551 -12z"/>
</g>
</svg>
